# xmcd CD database file
# Copyright (C) 1993-1998 Ti Kan
# 
# Track frame offsets:
#     182
#     18275
#     44282
#     66885
#     76880
#     81537
#     85347
#     88227
#     102715
#     133862
#     138045
#     139362
#     148357
#     158627
#     161927
#     177792
#     179610
#     190107
# 
# Disc length: 2634 seconds
# 
# Revision: 1
# Processed by: cddbd v1.4b41PL1 Copyright (c) Steve Scherf et al.
# Submitted via: DiscPlay 4.0.4
# 
DISCID=080a4812
DTITLE=Vladimir Mensik - Sylvestry Vladimira Mensika II.
DYEAR=1900
DGENRE=
TTITLE0=Uvod do silvestrovskeho sou
TTITLE1=Silvestrovska prani
TTITLE2=Madarsky rock'n'roll
TTITLE3=Epizoda s tanecnici Kajenkou
TTITLE4=Muller a Thurgau
TTITLE5=Krasa slovenstiny
TTITLE6=Kotata
TTITLE7=Oprava piana
TTITLE8=Posledni vecer v tomto roce
TTITLE9=Obezita
TTITLE10=Cvrcek a Prcek
TTITLE11=Jak maminka prodavala americky kamna
TTITLE12=Navsteva Vidne
TTITLE13=Duel
TTITLE14=Holka modrooka
TTITLE15=Z vety hole veta rozvita
TTITLE16=Prihoda s nataceni filmu Hvezda jede na Jih
TTITLE17=Prani do Noveho roku
EXTD=
EXTT0=
EXTT1=
EXTT2=
EXTT3=
EXTT4=
EXTT5=
EXTT6=
EXTT7=
EXTT8=
EXTT9=
EXTT10=
EXTT11=
EXTT12=
EXTT13=
EXTT14=
EXTT15=
EXTT16=
EXTT17=
PLAYORDER=
